<svg width="217" height="144" xmlns="http://www.w3.org/2000/svg" xmlns:xlink="http://www.w3.org/1999/xlink" xml:space="preserve" overflow="hidden"><defs><clipPath id="clip0"><rect x="1063" y="-31" width="217" height="144"/></clipPath><linearGradient x1="27.7713" y1="72.234" x2="189.85" y2="72.234" gradientUnits="userSpaceOnUse" spreadMethod="pad" id="fill1"><stop offset="0" stop-color="#C137A2"/><stop offset="1" stop-color="#694ED6"/></linearGradient></defs><g clip-path="url(#clip0)" transform="translate(-1063 31)"><path d="M33.444 66.1248 33.444 69.768 41.8752 69.768 41.8752 74.592 33.444 74.592 33.444 83.1816 27.7704 83.1816 27.7704 61.308 42.4944 61.308 42.4944 66.1248 33.444 66.1248ZM47.0232 83.1816 47.0232 61.308 52.6968 61.308 52.6968 83.1816 47.0232 83.1816ZM74.2104 83.1816 63.756 69.7968 63.756 83.1744 58.0824 83.1744 58.0824 61.308 63.756 61.308 74.2176 74.6856 74.2176 61.308 79.8912 61.308 79.8912 83.1816 74.2104 83.1816ZM99.8928 83.1816 98.4816 79.38 90.648 79.38 89.1432 83.1816 83.1816 83.1816 91.44 61.308 97.7328 61.308 105.962 83.1816 99.8928 83.1816ZM94.5792 68.0976 92.2176 75.0528 96.9408 75.0528 94.5792 68.0976ZM138.24 66.1248 138.24 83.1744 132.566 83.1744 132.566 66.1248 127.31 66.1248 127.31 61.308 143.597 61.308 143.597 66.1248 138.24 66.1248ZM158.501 83.1816 153.058 74.7864 153.058 83.1816 147.384 83.1816 147.384 61.308 156.24 61.308C158.306 61.308 160.106 61.704 161.582 63.2448 162.828 64.5264 163.454 66.3264 163.454 68.0976 163.454 69.4728 163.03 71.0136 162.209 72.1296 161.323 73.3392 160.142 73.9008 158.702 74.2248L165.557 83.1744 158.501 83.1744ZM154.138 65.7 153.058 65.7 153.058 71.1144 154.138 71.1144C155.909 71.1144 157.615 70.4232 157.615 68.3928 157.615 66.3552 155.873 65.7 154.138 65.7ZM183.787 83.1816 182.376 79.38 174.542 79.38 173.038 83.1816 167.04 83.1816 175.435 61.308 181.634 61.308 189.864 83.1816 183.787 83.1816ZM178.474 68.0976 176.112 75.0528 180.835 75.0528 178.474 68.0976ZM124.114 79.9488C122.688 82.728 119.275 83.8224 116.33 83.8224 113.58 83.8224 110.822 82.8432 108.569 81.288L111.096 76.7016C112.522 77.9616 114.206 78.9552 116.165 78.9552 117.554 78.9552 118.915 78.3576 118.915 76.7664 118.915 72.9216 109.541 75.8376 109.541 68.0904 109.541 63.6192 112.586 60.6384 117.029 60.6384 119.477 60.6384 121.63 61.164 123.782 62.2872L121.853 66.96C120.758 66.0672 119.448 65.412 117.986 65.412 116.863 65.412 115.538 66.0384 115.538 67.3344 115.538 70.5816 124.942 68.4576 124.942 76.0104 124.942 77.2704 124.711 78.8256 124.114 79.9488Z" fill="url(#fill1)" transform="matrix(1.00463 0 0 1 1063 -31)"/></g></svg>