<svg width="380" height="55" viewBox="0 0 380 55" fill="none" xmlns="http://www.w3.org/2000/svg">
<path d="M54.0379 37.0165C47.8206 37.0165 42.0578 33.9174 38.6219 28.7203C37.7538 27.4097 38.1129 25.6394 39.4218 24.7702C40.7352 23.901 42.4986 24.2605 43.3667 25.5711C45.7482 29.1663 49.734 31.3143 54.0379 31.3143C61.0915 31.3143 66.827 25.5711 66.827 18.5082C66.827 11.4453 61.0915 5.70219 54.0379 5.70219C45.83 5.70219 42.1805 12.8743 38.3128 20.4696C36.854 23.3321 35.3496 26.2947 33.5817 28.8113C29.8231 34.1722 24.6011 37.0074 18.4792 37.0074C8.28975 37.0074 0 28.7067 0 18.5037C0 8.30072 8.28975 0 18.4792 0C24.4057 0 30.014 2.87613 33.4817 7.69546C34.3997 8.97424 34.1134 10.7536 32.8363 11.6729C31.5592 12.5922 29.7822 12.3054 28.8642 11.0267C26.4645 7.6909 22.5832 5.69764 18.4792 5.69764C11.4257 5.69764 5.69011 11.4408 5.69011 18.5037C5.69011 25.5666 11.4257 31.3097 18.4792 31.3097C22.7241 31.3097 26.2373 29.3665 28.9232 25.5393C30.4594 23.3503 31.8092 20.6926 33.2408 17.8802C37.5084 9.49758 42.3441 0 54.0334 0C64.2229 0 72.5126 8.30072 72.5126 18.5037C72.5126 28.7067 64.2274 37.0165 54.0379 37.0165ZM53.5107 11.5455C49.6658 11.5455 46.5481 14.6673 46.5481 18.5173C46.5481 22.3673 49.6658 25.4892 53.5107 25.4892C57.3556 25.4892 60.4734 22.3673 60.4734 18.5173C60.4734 14.6628 57.3556 11.5455 53.5107 11.5455Z" fill="url(#paint0_linear_291_5407)"/>
<path d="M80.7393 7.13601C80.7393 5.73435 81.9436 4.68311 83.3434 4.68311C84.7796 4.68311 85.9476 5.73435 85.9476 7.13601C85.9476 8.53766 84.7842 9.58436 83.3434 9.58436C81.9436 9.58436 80.7393 8.53766 80.7393 7.13601ZM81.4392 31.9153V13.7484H85.2477V31.9153H81.4392Z" fill="white"/>
<path d="M105.99 21.5304V31.9154H102.182V21.7625C102.182 18.8045 100.396 17.016 98.064 17.016C95.6962 17.016 92.8193 18.3767 92.8193 22.1494V31.9154H89.0107V13.7485H92.8193V16.5473C93.8692 14.2901 96.7824 13.2798 98.723 13.2798C103.309 13.2843 106.031 16.3562 105.99 21.5304Z" fill="white"/>
<path d="M125.22 8.76971H113.408V16.8975H122.77V20.5518H113.408V31.9107H109.408V5.11084H125.22V8.76971Z" fill="white"/>
<path d="M126.729 7.13601C126.729 5.73435 127.933 4.68311 129.333 4.68311C130.769 4.68311 131.937 5.73435 131.937 7.13601C131.937 8.53766 130.773 9.58436 129.333 9.58436C127.933 9.58436 126.729 8.53766 126.729 7.13601ZM127.428 31.9153V13.7484H131.237V31.9153H127.428Z" fill="white"/>
<path d="M151.979 21.5304V31.9154H148.171V21.7625C148.171 18.8045 146.385 17.016 144.053 17.016C141.685 17.016 138.809 18.3767 138.809 22.1494V31.9154H135V13.7485H138.809V16.5473C139.858 14.2901 142.772 13.2798 144.712 13.2798C149.298 13.2843 152.02 16.3562 151.979 21.5304Z" fill="white"/>
<path d="M154.774 7.13601C154.774 5.73435 155.979 4.68311 157.379 4.68311C158.815 4.68311 159.983 5.73435 159.983 7.13601C159.983 8.53766 158.819 9.58436 157.379 9.58436C155.979 9.58436 154.774 8.53766 154.774 7.13601ZM155.474 31.9153V13.7484H159.283V31.9153H155.474Z" fill="white"/>
<path d="M173.808 13.7485V16.9386H169.922V31.9154H166.114V16.9386H162.851V13.7485H166.114V6.94043H169.922V13.7485H173.808Z" fill="white"/>
<path d="M193.891 24.37H179.439C179.943 27.3281 182.12 28.8435 185.033 28.8435C187.17 28.8435 189.151 27.8696 190.16 26.1994L193.191 27.7149C191.601 30.7503 188.338 32.384 184.879 32.384C179.634 32.384 175.517 28.534 175.517 22.7772C175.517 17.0204 179.711 13.2842 184.879 13.2842C190.046 13.2842 193.969 17.0204 193.969 22.7363C193.969 23.2414 193.932 23.783 193.891 24.37ZM190.165 21.2936C189.774 18.4539 187.715 16.8202 184.92 16.8202C182.125 16.8202 180.025 18.2582 179.48 21.2936H190.165Z" fill="white"/>
<path d="M204.499 31.9107V5.11084H206.249V31.9107H204.499Z" fill="#CCCCCC"/>
<path d="M226.564 21.2524V31.9104H224.855V21.3297C224.855 17.4388 222.369 14.9904 219.065 14.9904C215.879 14.9904 212.734 16.8563 212.616 21.6801V31.9104H210.907V13.7435H212.616V17.4797C213.666 14.4853 216.616 13.2793 219.183 13.2793C223.455 13.2793 226.564 16.3147 226.564 21.2524Z" fill="#CCCCCC"/>
<path d="M238.526 13.748V15.2635H234.136V31.9104H232.427V15.2635H229.123V13.748H232.427V6.98096H234.136V13.748H238.526Z" fill="#CCCCCC"/>
<path d="M257.601 23.5097H241.285C241.635 27.9058 244.625 30.7046 248.743 30.7046C251.461 30.7046 253.833 29.3439 255.151 27.164L256.665 27.9013C255.033 30.7046 252.043 32.3747 248.702 32.3747C243.612 32.3747 239.535 28.5247 239.535 22.7679C239.535 17.0475 243.616 13.2749 248.702 13.2749C253.87 13.2749 257.601 17.0475 257.601 22.7679V23.5097ZM255.892 22.0307C255.619 17.712 252.706 14.9496 248.707 14.9496C244.666 14.9496 241.676 17.5936 241.285 22.0307H255.892Z" fill="#CCCCCC"/>
<path d="M260.782 31.9106V3.86377H262.491V31.9106H260.782Z" fill="#CCCCCC"/>
<path d="M267.85 31.9106V3.86377H269.558V31.9106H267.85Z" fill="#CCCCCC"/>
<path d="M274.299 7.0584C274.299 6.23925 274.958 5.65674 275.776 5.65674C276.63 5.65674 277.289 6.23925 277.289 7.0584C277.289 7.83659 276.63 8.4191 275.776 8.4191C274.962 8.4191 274.299 7.83204 274.299 7.0584ZM274.921 31.9105V13.7436H276.63V31.9105H274.921Z" fill="#CCCCCC"/>
<path d="M297.881 13.748H299.59V29.4621C299.59 38.4454 295.627 41.1714 289.841 41.1714C286.887 41.1714 284.051 39.8471 282.229 37.0847L283.665 36.2292C285.178 38.4454 287.51 39.4966 289.841 39.4966C294.618 39.4966 297.881 37.2394 297.881 29.5394V27.9057C296.404 30.5497 293.373 32.3791 290.032 32.3791C284.865 32.3791 280.67 28.1787 280.67 22.8087C280.67 17.4433 284.865 13.2793 290.032 13.2793C293.414 13.2793 296.363 15.1087 297.881 17.7937V13.748ZM297.881 22.9635C297.881 18.217 294.268 14.9495 290.11 14.9495C285.874 14.9495 282.379 18.449 282.379 22.8087C282.379 27.1639 285.874 30.7044 290.11 30.7044C294.345 30.709 297.881 27.4415 297.881 22.9635Z" fill="#CCCCCC"/>
<path d="M320.991 23.5097H304.676C305.025 27.9058 308.016 30.7046 312.134 30.7046C314.851 30.7046 317.224 29.3439 318.542 27.164L320.055 27.9013C318.424 30.7046 315.433 32.3747 312.093 32.3747C307.002 32.3747 302.926 28.5247 302.926 22.7679C302.926 17.0475 307.007 13.2749 312.093 13.2749C317.26 13.2749 320.991 17.0475 320.991 22.7679V23.5097ZM319.283 22.0307C319.01 17.712 316.097 14.9496 312.097 14.9496C308.057 14.9496 305.066 17.5936 304.676 22.0307H319.283Z" fill="#CCCCCC"/>
<path d="M339.831 21.2524V31.9104H338.122V21.3297C338.122 17.4388 335.636 14.9904 332.332 14.9904C329.146 14.9904 326.001 16.8563 325.883 21.6801V31.9104H324.174V13.7435H325.883V17.4797C326.933 14.4853 329.882 13.2793 332.45 13.2793C336.722 13.2793 339.831 16.3147 339.831 21.2524Z" fill="#CCCCCC"/>
<path d="M342.898 22.7723C342.898 17.0519 347.211 13.2793 352.415 13.2793C354.747 13.2793 356.924 14.1349 358.555 15.4591L357.506 16.7061C356.183 15.6548 354.36 14.954 352.415 14.954C348.102 14.954 344.607 18.0668 344.607 22.7723C344.607 27.5189 348.102 30.709 352.415 30.709C354.356 30.709 356.147 30.0491 357.506 28.9569L358.592 30.2038C356.919 31.5645 354.783 32.3837 352.415 32.3837C347.207 32.3791 342.898 28.5291 342.898 22.7723Z" fill="#CCCCCC"/>
<path d="M379.256 23.5097H362.94C363.29 27.9058 366.281 30.7046 370.398 30.7046C373.116 30.7046 375.488 29.3439 376.806 27.164L378.32 27.9013C376.688 30.7046 373.698 32.3747 370.357 32.3747C365.267 32.3747 361.19 28.5247 361.19 22.7679C361.19 17.0475 365.272 13.2749 370.357 13.2749C375.525 13.2749 379.256 17.0475 379.256 22.7679V23.5097ZM377.547 22.0307C377.275 17.712 374.361 14.9496 370.362 14.9496C366.322 14.9496 363.331 17.5936 362.94 22.0307H377.547Z" fill="#CCCCCC"/>
<path d="M88.4878 38.8867H89.9831V50.2137H88.4878V45.267H82.9386V50.2137H81.4434V38.8867H82.9386V43.9017H88.4878V38.8867Z" fill="#E13DF0"/>
<path d="M99.1588 46.9918H92.9234C93.137 48.357 94.1232 49.0624 95.4366 49.0624C96.3729 49.0624 97.2273 48.6346 97.6681 47.861L98.8998 48.3525C98.2453 49.6859 96.8637 50.4094 95.3866 50.4094C93.2051 50.4094 91.4463 48.7803 91.4463 46.3501C91.4463 43.9154 93.2006 42.3408 95.3866 42.3408C97.5682 42.3408 99.1952 43.92 99.1952 46.3501C99.1907 46.564 99.177 46.7779 99.1588 46.9918ZM97.7636 45.7585C97.5818 44.4433 96.6456 43.6879 95.3821 43.6879C94.0868 43.6879 93.1642 44.3796 92.937 45.7585H97.7636Z" fill="#E13DF0"/>
<path d="M100.818 50.2136V38.3633H102.245V50.2136H100.818Z" fill="#E13DF0"/>
<path d="M112.067 46.382C112.067 48.8121 110.344 50.4095 108.24 50.4095C107.09 50.4095 106.008 49.918 105.499 49.0123V53.9454H104.072V42.5365H105.499V43.7379C106.008 42.8642 107.126 42.3408 108.226 42.3408C110.326 42.3408 112.067 43.97 112.067 46.382ZM110.621 46.4002C110.621 44.8711 109.503 43.6879 108.094 43.6879C106.731 43.6879 105.499 44.7573 105.499 46.4002C105.499 48.0612 106.845 49.0624 108.094 49.0624C109.503 49.0624 110.621 47.9474 110.621 46.4002Z" fill="#E13DF0"/>
<path d="M113.43 39.7104C113.43 39.1688 113.889 38.7593 114.43 38.7593C114.989 38.7593 115.448 39.1688 115.448 39.7104C115.448 40.2519 114.989 40.6661 114.43 40.6661C113.889 40.6661 113.43 40.2519 113.43 39.7104ZM113.725 50.2137V42.5365H115.152V50.2137H113.725Z" fill="#E13DF0"/>
<path d="M124.692 45.7767V50.2138H123.265V45.8586C123.265 44.5753 122.479 43.7561 121.411 43.7561C120.342 43.7561 119.061 44.3978 119.061 46.0588V50.2183H117.634V42.5411H119.061V43.7061C119.52 42.7686 120.77 42.3408 121.606 42.3408C123.51 42.3408 124.706 43.6242 124.692 45.7767Z" fill="#E13DF0"/>
<path d="M132.804 42.5362H134.231V49.144C134.231 52.7755 132.591 54.1408 130.064 54.1408C128.668 54.1408 127.373 53.4354 126.614 52.0884L127.828 51.4467C128.305 52.3205 129.205 52.7937 130.059 52.7937C131.75 52.7937 132.8 51.8426 132.8 49.2441V49.012C132.291 49.8858 131.173 50.4091 130.073 50.4091C127.973 50.4091 126.232 48.7799 126.232 46.3634C126.232 43.9287 127.955 42.3359 130.059 42.3359C131.209 42.3359 132.291 42.8456 132.8 43.733V42.5362H132.804ZM132.804 46.3498C132.804 44.6887 131.459 43.6875 130.196 43.6875C128.8 43.6875 127.682 44.807 127.682 46.3498C127.682 47.8788 128.8 49.0621 130.196 49.0621C131.573 49.0621 132.804 47.9926 132.804 46.3498Z" fill="#E13DF0"/>
<path d="M146.975 40.2702H141.885V43.9518H145.921V45.3489H141.885V50.2137H140.39V38.8867H146.971V40.2702H146.975Z" fill="#E13DF0"/>
<path d="M148.175 39.7104C148.175 39.1688 148.634 38.7593 149.175 38.7593C149.734 38.7593 150.193 39.1688 150.193 39.7104C150.193 40.2519 149.734 40.6661 149.175 40.6661C148.634 40.6661 148.175 40.2519 148.175 39.7104ZM148.47 50.2137V42.5365H149.897V50.2137H148.47Z" fill="#E13DF0"/>
<path d="M159.105 45.7767V50.2138H157.678V45.8586C157.678 44.5753 156.892 43.7561 155.824 43.7561C154.756 43.7561 153.474 44.3978 153.474 46.0588V50.2183H152.047V42.5411H153.474V43.7061C153.933 42.7686 155.183 42.3408 156.019 42.3408C157.923 42.3408 159.123 43.6242 159.105 45.7767Z" fill="#E13DF0"/>
<path d="M166.872 42.5362H168.299V50.2134H166.872V48.8482C166.363 49.7674 165.295 50.4091 164.063 50.4091C162.059 50.4091 160.305 48.7162 160.305 46.3634C160.305 44.0971 161.964 42.3359 164.131 42.3359C165.281 42.3359 166.363 42.8274 166.872 43.733V42.5362ZM166.872 46.368C166.872 44.7888 165.54 43.6875 164.263 43.6875C162.868 43.6875 161.75 44.9208 161.75 46.368C161.75 47.8288 162.868 49.0621 164.277 49.0621C165.64 49.0621 166.872 47.9289 166.872 46.368Z" fill="#E13DF0"/>
<path d="M177.203 45.7767V50.2138H175.776V45.8586C175.776 44.5753 174.989 43.7561 173.921 43.7561C172.853 43.7561 171.572 44.3978 171.572 46.0588V50.2183H170.145V42.5411H171.572V43.7061C172.031 42.7686 173.28 42.3408 174.117 42.3408C176.021 42.3408 177.216 43.6242 177.203 45.7767Z" fill="#E13DF0"/>
<path d="M178.712 46.3683C178.712 43.9336 180.634 42.3408 182.834 42.3408C184.034 42.3408 185.084 42.8187 185.756 43.5559L184.852 44.4934C184.375 44.0019 183.688 43.6879 182.884 43.6879C181.375 43.6879 180.157 44.7892 180.157 46.3683C180.157 47.9474 181.371 49.0624 182.884 49.0624C183.688 49.0624 184.379 48.7484 184.852 48.2569L185.756 49.1944C185.084 49.9498 184.034 50.4094 182.834 50.4094C180.634 50.4094 178.712 48.7985 178.712 46.3683Z" fill="#E13DF0"/>
<path d="M194.573 46.9918H188.337C188.551 48.357 189.537 49.0624 190.851 49.0624C191.787 49.0624 192.641 48.6346 193.082 47.861L194.314 48.3525C193.659 49.6859 192.278 50.4094 190.801 50.4094C188.619 50.4094 186.86 48.7803 186.86 46.3501C186.86 43.9154 188.615 42.3408 190.801 42.3408C192.982 42.3408 194.609 43.92 194.609 46.3501C194.605 46.564 194.587 46.7779 194.573 46.9918ZM193.178 45.7585C192.996 44.4433 192.06 43.6879 190.796 43.6879C189.501 43.6879 188.578 44.3796 188.351 45.7585H193.178Z" fill="#E13DF0"/>
<path d="M200.223 50.2137V38.8867H201.718V50.2137H200.223Z" fill="#E13DF0"/>
<path d="M210.83 45.7767V50.2138H209.403V45.8586C209.403 44.5753 208.616 43.7561 207.548 43.7561C206.48 43.7561 205.199 44.3978 205.199 46.0588V50.2183H203.771V42.5411H205.199V43.7061C205.658 42.7686 206.907 42.3408 207.744 42.3408C209.648 42.3408 210.848 43.6242 210.83 45.7767Z" fill="#E13DF0"/>
<path d="M219.615 45.7767V50.2138H218.188V45.8586C218.188 44.5753 217.401 43.7561 216.333 43.7561C215.265 43.7561 213.984 44.3978 213.984 46.0588V50.2183H212.557V42.5411H213.984V43.7061C214.443 42.7686 215.693 42.3408 216.529 42.3408C218.433 42.3408 219.628 43.6242 219.615 45.7767Z" fill="#E13DF0"/>
<path d="M221.142 46.3683C221.142 43.9336 222.964 42.3408 225.146 42.3408C227.327 42.3408 229.168 43.9336 229.168 46.3683C229.168 48.7985 227.327 50.414 225.146 50.414C222.964 50.414 221.142 48.7985 221.142 46.3683ZM227.741 46.3683C227.741 44.7892 226.559 43.6879 225.146 43.6879C223.75 43.6879 222.587 44.7892 222.587 46.3683C222.587 47.9611 223.75 49.0624 225.146 49.0624C226.559 49.0624 227.741 47.9611 227.741 46.3683Z" fill="#E13DF0"/>
<path d="M236.194 42.5366H237.74L234.54 50.2139H233.145L229.959 42.5366H231.486L233.849 48.389L236.194 42.5366Z" fill="#E13DF0"/>
<path d="M245.08 42.5362H246.507V50.2134H245.08V48.8482C244.571 49.7674 243.503 50.4091 242.271 50.4091C240.267 50.4091 238.513 48.7162 238.513 46.3634C238.513 44.0971 240.172 42.3359 242.339 42.3359C243.489 42.3359 244.571 42.8274 245.08 43.733V42.5362ZM245.08 46.368C245.08 44.7888 243.748 43.6875 242.471 43.6875C241.076 43.6875 239.958 44.9208 239.958 46.368C239.958 47.8288 241.076 49.0621 242.485 49.0621C243.848 49.0621 245.08 47.9289 245.08 46.368Z" fill="#E13DF0"/>
<path d="M252.351 42.5363V43.7695H250.692V50.2135H249.265V43.7695H247.884V42.5363H249.265V39.6465H250.692V42.5408H252.351V42.5363Z" fill="#E13DF0"/>
<path d="M260.823 46.9918H254.587C254.801 48.357 255.787 49.0624 257.101 49.0624C258.037 49.0624 258.891 48.6346 259.332 47.861L260.564 48.3525C259.905 49.6859 258.528 50.4094 257.051 50.4094C254.869 50.4094 253.11 48.7803 253.11 46.3501C253.11 43.9154 254.865 42.3408 257.051 42.3408C259.237 42.3408 260.859 43.92 260.859 46.3501C260.855 46.564 260.841 46.7779 260.823 46.9918ZM259.428 45.7585C259.246 44.4433 258.31 43.6879 257.046 43.6879C255.751 43.6879 254.828 44.3796 254.601 45.7585H259.428Z" fill="#E13DF0"/>
<defs>
<linearGradient id="paint0_linear_291_5407" x1="0" y1="18.5133" x2="72.5161" y2="18.5133" gradientUnits="userSpaceOnUse">
<stop stop-color="#EAC49F"/>
<stop offset="0.0546064" stop-color="#E8B4AD"/>
<stop offset="0.1804" stop-color="#E494C8"/>
<stop offset="0.25" stop-color="#E288D2"/>
<stop offset="0.395" stop-color="#E15AE4"/>
<stop offset="0.5" stop-color="#E13DF0"/>
<stop offset="0.645" stop-color="#C23BF0"/>
<stop offset="0.9608" stop-color="#7338F1"/>
<stop offset="1" stop-color="#6937F1"/>
</linearGradient>
</defs>
</svg>
