<svg width="160" height="45" viewBox="0 0 160 45" fill="none" xmlns="http://www.w3.org/2000/svg">
<path d="M33.7941 30.2208C29.9059 30.2208 26.302 28.2827 24.1533 25.0326C23.6104 24.2129 23.8349 23.1058 24.6535 22.5623C25.4749 22.0187 26.5777 22.2435 27.1206 23.0631C28.6099 25.3115 31.1025 26.6548 33.7941 26.6548C38.2053 26.6548 41.7921 23.0632 41.7921 18.6462C41.7921 14.2292 38.2053 10.6376 33.7941 10.6376C28.661 10.6376 26.3787 15.1228 23.96 19.8728C23.0476 21.6629 22.1069 23.5157 21.0012 25.0895C18.6507 28.4421 15.385 30.2151 11.5565 30.2151C5.18423 30.2151 0 25.024 0 18.6433C0 12.2626 5.18423 7.07153 11.5565 7.07153C15.2628 7.07153 18.7701 8.8702 20.9387 11.8841C21.5128 12.6838 21.3338 13.7966 20.5351 14.3715C19.7364 14.9464 18.6251 14.7671 18.051 13.9674C16.5503 11.8813 14.123 10.6347 11.5565 10.6347C7.14537 10.6347 3.55847 14.2264 3.55847 18.6433C3.55847 23.0603 7.14537 26.6519 11.5565 26.6519C14.2112 26.6519 16.4082 25.4367 18.088 23.0432C19.0486 21.6743 19.8928 20.0122 20.7881 18.2534C23.4569 13.0111 26.4811 7.07153 33.7913 7.07153C40.1636 7.07153 45.3478 12.2626 45.3478 18.6433C45.3478 25.024 40.1664 30.2208 33.7941 30.2208ZM33.4644 14.2918C31.0599 14.2918 29.1101 16.2442 29.1101 18.6519C29.1101 21.0596 31.0599 23.0119 33.4644 23.0119C35.8689 23.0119 37.8187 21.0596 37.8187 18.6519C37.8187 16.2413 35.8689 14.2918 33.4644 14.2918Z" fill="url(#paint0_linear_315_8565)"/>
<path d="M49.4922 1.53399C49.4922 0.657424 50.2454 0 51.1208 0C52.019 0 52.7494 0.657424 52.7494 1.53399C52.7494 2.41055 52.0218 3.06513 51.1208 3.06513C50.2454 3.06513 49.4922 2.41055 49.4922 1.53399ZM49.9299 17.0304V5.66921H52.3117V17.0304H49.9299Z" fill="white"/>
<path d="M65.2837 10.5359V17.0304H62.9019V10.681C62.9019 8.83113 61.7849 7.71266 60.3268 7.71266C58.846 7.71266 57.0469 8.56361 57.0469 10.9229V17.0304H54.6651V5.66924H57.0469V7.41952C57.7034 6.00791 59.5253 5.3761 60.7389 5.3761C63.6068 5.37894 65.3093 7.29999 65.2837 10.5359Z" fill="white"/>
<path d="M77.3091 2.55576H69.9222V7.63869H75.7772V9.92403H69.9222V17.0276H67.421V0.267578H77.3091V2.55576Z" fill="white"/>
<path d="M78.2528 1.53399C78.2528 0.657424 79.006 0 79.8814 0C80.7796 0 81.51 0.657424 81.51 1.53399C81.51 2.41055 80.7824 3.06513 79.8814 3.06513C79.006 3.06513 78.2528 2.41055 78.2528 1.53399ZM78.6905 17.0304V5.66921H81.0723V17.0304H78.6905Z" fill="white"/>
<path d="M94.0442 10.5359V17.0304H91.6625V10.681C91.6625 8.83113 90.5455 7.71266 89.0874 7.71266C87.6066 7.71266 85.8075 8.56361 85.8075 10.9229V17.0304H83.4257V5.66924H85.8075V7.41952C86.464 6.00791 88.2859 5.3761 89.4995 5.3761C92.3673 5.37894 94.0698 7.29999 94.0442 10.5359Z" fill="white"/>
<path d="M95.7922 1.53399C95.7922 0.657424 96.5454 0 97.4208 0C98.319 0 99.0494 0.657424 99.0494 1.53399C99.0494 2.41055 98.3218 3.06513 97.4208 3.06513C96.5454 3.06513 95.7922 2.41055 95.7922 1.53399ZM96.2299 17.0304V5.66921H98.6117V17.0304H96.2299Z" fill="white"/>
<path d="M107.695 5.66922V7.66426H105.265V17.0304H102.883V7.66426H100.843V5.66922H102.883V1.41162H105.265V5.66922H107.695Z" fill="white"/>
<path d="M120.255 12.3117H111.217C111.533 14.1616 112.894 15.1093 114.716 15.1093C116.052 15.1093 117.291 14.5003 117.922 13.4558L119.818 14.4035C118.823 16.3018 116.782 17.3235 114.619 17.3235C111.339 17.3235 108.764 14.9158 108.764 11.3156C108.764 7.71547 111.388 5.37891 114.619 5.37891C117.851 5.37891 120.304 7.71547 120.304 11.29C120.304 11.6059 120.281 11.9446 120.255 12.3117ZM117.925 10.3878C117.68 8.61195 116.393 7.59024 114.645 7.59024C112.897 7.59024 111.584 8.48957 111.243 10.3878H117.925Z" fill="white"/>
<path d="M50 38.6114V21.8513H51.0943V38.6114H50Z" fill="#CCCCCC"/>
<path d="M63.7991 31.946V38.6113H62.7304V31.9944C62.7304 29.5611 61.1757 28.0299 59.1094 28.0299C57.117 28.0299 55.1501 29.1968 55.0762 32.2135V38.6113H54.0076V27.2501H55.0762V29.5867C55.7328 27.714 57.5774 26.9598 59.1833 26.9598C61.855 26.9598 63.7991 28.8581 63.7991 31.946Z" fill="#CCCCCC"/>
<path d="M71.2797 27.253V28.2007H68.5342V38.6113H67.4655V28.2007H65.3992V27.253H67.4655V23.021H68.5342V27.253H71.2797Z" fill="#CCCCCC"/>
<path d="M83.2086 33.3577H73.005C73.2239 36.1069 75.0941 37.8572 77.6691 37.8572C79.3688 37.8572 80.8524 37.0062 81.6767 35.643L82.6231 36.104C81.6028 37.8572 79.7326 38.9017 77.6436 38.9017C74.4603 38.9017 71.9108 36.4939 71.9108 32.8938C71.9108 29.3164 74.4631 26.957 77.6436 26.957C80.8752 26.957 83.2086 29.3164 83.2086 32.8938V33.3577V33.3577ZM82.14 32.4327C81.9694 29.7319 80.1475 28.0044 77.6464 28.0044C75.1196 28.0044 73.2495 29.6579 73.005 32.4327H82.14Z" fill="#CCCCCC"/>
<path d="M85.1982 38.6114V21.0715H86.2669V38.6114H85.1982Z" fill="#CCCCCC"/>
<path d="M89.6179 38.6114V21.0715H90.6866V38.6114H89.6179Z" fill="#CCCCCC"/>
<path d="M93.651 23.0694C93.651 22.5572 94.0631 22.1929 94.5747 22.1929C95.1091 22.1929 95.5212 22.5572 95.5212 23.0694C95.5212 23.5561 95.1091 23.9204 94.5747 23.9204C94.066 23.9204 93.651 23.5533 93.651 23.0694ZM94.0404 38.6114V27.2502H95.1091V38.6114H94.0404Z" fill="#CCCCCC"/>
<path d="M108.399 27.253H109.468V37.0802C109.468 42.6982 106.99 44.4029 103.371 44.4029C101.524 44.4029 99.7504 43.5747 98.6106 41.8472L99.5088 41.3122C100.455 42.6982 101.913 43.3556 103.371 43.3556C106.359 43.3556 108.399 41.944 108.399 37.1286V36.1069C107.476 37.7604 105.58 38.9045 103.491 38.9045C100.259 38.9045 97.6357 36.2776 97.6357 32.9193C97.6357 29.5639 100.259 26.9598 103.491 26.9598C105.605 26.9598 107.45 28.1039 108.399 29.7831V27.253ZM108.399 33.0161C108.399 30.0477 106.14 28.0043 103.539 28.0043C100.89 28.0043 98.7044 30.1929 98.7044 32.9193C98.7044 35.643 100.89 37.8571 103.539 37.8571C106.188 37.86 108.399 35.8166 108.399 33.0161Z" fill="#CCCCCC"/>
<path d="M122.852 33.3577H112.648C112.867 36.1069 114.738 37.8572 117.313 37.8572C119.012 37.8572 120.496 37.0062 121.32 35.643L122.267 36.104C121.246 37.8572 119.376 38.9017 117.287 38.9017C114.104 38.9017 111.554 36.4939 111.554 32.8938C111.554 29.3164 114.107 26.957 117.287 26.957C120.519 26.957 122.852 29.3164 122.852 32.8938V33.3577ZM121.783 32.4327C121.613 29.7319 119.791 28.0044 117.29 28.0044C114.763 28.0044 112.893 29.6579 112.648 32.4327H121.783Z" fill="#CCCCCC"/>
<path d="M134.633 31.946V38.6113H133.564V31.9944C133.564 29.5611 132.01 28.0299 129.943 28.0299C127.951 28.0299 125.984 29.1968 125.91 32.2135V38.6113H124.842V27.2501H125.91V29.5867C126.567 27.714 128.412 26.9598 130.017 26.9598C132.689 26.9598 134.633 28.8581 134.633 31.946Z" fill="#CCCCCC"/>
<path d="M136.552 32.8966C136.552 29.3192 139.249 26.9598 142.503 26.9598C143.961 26.9598 145.323 27.4949 146.343 28.3231L145.687 29.1029C144.859 28.4454 143.72 28.0072 142.503 28.0072C139.806 28.0072 137.62 29.9538 137.62 32.8966C137.62 35.8649 139.806 37.86 142.503 37.86C143.717 37.86 144.837 37.4473 145.687 36.7643L146.366 37.5441C145.32 38.395 143.984 38.9073 142.503 38.9073C139.246 38.9045 136.552 36.4968 136.552 32.8966Z" fill="#CCCCCC"/>
<path d="M159.289 33.3577H149.086C149.305 36.1069 151.175 37.8572 153.75 37.8572C155.45 37.8572 156.933 37.0062 157.757 35.643L158.704 36.104C157.684 37.8572 155.813 38.9017 153.724 38.9017C150.541 38.9017 147.992 36.4939 147.992 32.8938C147.992 29.3164 150.544 26.957 153.724 26.957C156.956 26.957 159.289 29.3164 159.289 32.8938V33.3577V33.3577ZM158.221 32.4327C158.05 29.7319 156.228 28.0044 153.727 28.0044C151.2 28.0044 149.33 29.6579 149.086 32.4327H158.221Z" fill="#CCCCCC"/>
<defs>
<linearGradient id="paint0_linear_315_8565" x1="0" y1="18.6494" x2="45.3499" y2="18.6494" gradientUnits="userSpaceOnUse">
<stop stop-color="#EAC49F"/>
<stop offset="0.0546064" stop-color="#E8B4AD"/>
<stop offset="0.1804" stop-color="#E494C8"/>
<stop offset="0.25" stop-color="#E288D2"/>
<stop offset="0.395" stop-color="#E15AE4"/>
<stop offset="0.5" stop-color="#E13DF0"/>
<stop offset="0.645" stop-color="#C23BF0"/>
<stop offset="0.9608" stop-color="#7338F1"/>
<stop offset="1" stop-color="#6937F1"/>
</linearGradient>
</defs>
</svg>
