<svg width="38" height="38" viewBox="0 0 38 38" fill="none" xmlns="http://www.w3.org/2000/svg">
<circle cx="19" cy="19" r="18" stroke="white" stroke-width="2"/>
<path fill-rule="evenodd" clip-rule="evenodd" d="M13 24.3875H15.6625V14.6937H13V24.3875ZM13 13.1937H15.6625V11H13V13.1937Z" fill="white"/>
<path fill-rule="evenodd" clip-rule="evenodd" d="M20.2949 14.6937V16.0437H20.3512C20.6887 15.4812 21.1262 15.0712 21.6637 14.8149C22.2012 14.5599 22.7512 14.4312 23.3137 14.4312C24.0262 14.4312 24.6099 14.5274 25.0674 14.7212C25.5224 14.9149 25.8824 15.1849 26.1449 15.5274C26.4074 15.8724 26.5912 16.2899 26.6987 16.7837C26.8037 17.2787 26.8574 17.8249 26.8574 18.4249V24.3874H24.1949V18.9124C24.1949 18.1124 24.0699 17.5149 23.8199 17.1212C23.5699 16.7274 23.1262 16.5312 22.4887 16.5312C21.7637 16.5312 21.2387 16.7462 20.9137 17.1774C20.5887 17.6087 20.4262 18.3187 20.4262 19.3062V24.3874H17.7637V14.6937H20.2949Z" fill="white"/>
</svg>
