<svg width="60" height="60" viewBox="0 0 60 60" fill="none" xmlns="http://www.w3.org/2000/svg">
<rect width="60" height="60" fill="#03033A"/>
<path d="M34.1042 33.2917H33.1496L32.8112 32.9654C33.9954 31.5879 34.7083 29.7996 34.7083 27.8542C34.7083 23.5162 31.1921 20 26.8542 20C22.5162 20 19 23.5162 19 27.8542C19 32.1921 22.5162 35.7083 26.8542 35.7083C28.7996 35.7083 30.5879 34.9954 31.9654 33.8112L32.2917 34.1496V35.1042L38.3333 41.1337L40.1337 39.3333L34.1042 33.2917V33.2917ZM26.8542 33.2917C23.8454 33.2917 21.4167 30.8629 21.4167 27.8542C21.4167 24.8454 23.8454 22.4167 26.8542 22.4167C29.8629 22.4167 32.2917 24.8454 32.2917 27.8542C32.2917 30.8629 29.8629 33.2917 26.8542 33.2917Z" fill="white"/>
</svg>
