<svg width="534" height="302" viewBox="0 0 534 302" fill="none" xmlns="http://www.w3.org/2000/svg">
<mask id="mask0_342_12048" style="mask-type:alpha" maskUnits="userSpaceOnUse" x="0" y="0" width="534" height="302">
<rect width="534" height="302" fill="url(#paint0_linear_342_12048)"/>
</mask>
<g mask="url(#mask0_342_12048)">
<path d="M525 302C525 302 417.504 302 277.5 302C137.496 302 -6 302 -6 302C-6 161.996 139 3 277.5 3C443 3 554 156 525 302Z" fill="#03033A"/>
<path d="M275.966 512C190.139 512 110.586 469.302 63.1557 397.698C51.1725 379.641 56.1288 355.251 74.1976 343.275C92.3292 331.299 116.672 336.253 128.655 354.31C161.53 403.843 216.552 433.437 275.966 433.437C373.337 433.437 452.514 354.31 452.514 257C452.514 159.69 373.337 80.5628 275.966 80.5628C162.66 80.5628 112.28 179.378 58.8894 284.024C38.7502 323.462 17.9836 364.279 -6.42185 398.952C-58.307 472.813 -130.394 511.875 -214.903 511.875C-355.564 511.875 -470 397.51 -470 256.937C-470 116.364 -355.564 2 -214.903 2C-133.092 2 -55.672 41.6263 -7.80215 108.025C4.87112 125.644 0.918597 150.16 -16.711 162.825C-34.3407 175.49 -58.8716 171.54 -71.5449 153.922C-104.671 107.963 -158.25 80.5001 -214.903 80.5001C-312.274 80.5001 -391.451 159.627 -391.451 256.937C-391.451 354.247 -312.274 433.375 -214.903 433.375C-156.305 433.375 -107.808 406.602 -70.7293 353.871C-49.5235 323.713 -30.89 287.096 -11.1273 248.347C47.7846 132.854 114.539 2 275.903 2C416.564 2 531 116.364 531 256.937C531 397.51 416.627 512 275.966 512ZM268.688 161.069C215.611 161.069 172.572 204.081 172.572 257.125C172.572 310.169 215.611 353.182 268.688 353.182C321.766 353.182 364.805 310.169 364.805 257.125C364.805 204.019 321.766 161.069 268.688 161.069Z" fill="url(#paint1_linear_342_12048)"/>
</g>
<defs>
<linearGradient id="paint0_linear_342_12048" x1="562.925" y1="78.2965" x2="-4.08642" y2="88.5279" gradientUnits="userSpaceOnUse">
<stop stop-color="#03033A"/>
<stop offset="1" stop-color="#6937F1"/>
</linearGradient>
<linearGradient id="paint1_linear_342_12048" x1="-470" y1="257.07" x2="531.048" y2="257.07" gradientUnits="userSpaceOnUse">
<stop stop-color="#EAC49F"/>
<stop offset="0.0546064" stop-color="#E8B4AD"/>
<stop offset="0.1804" stop-color="#E494C8"/>
<stop offset="0.25" stop-color="#E288D2"/>
<stop offset="0.395" stop-color="#E15AE4"/>
<stop offset="0.5" stop-color="#E13DF0"/>
<stop offset="0.645" stop-color="#C23BF0"/>
<stop offset="0.9608" stop-color="#7338F1"/>
<stop offset="1" stop-color="#6937F1"/>
</linearGradient>
</defs>
</svg>
