<svg width="38" height="38" viewBox="0 0 38 38" fill="none" xmlns="http://www.w3.org/2000/svg">
<path d="M26.1498 15.6434C26.1612 15.8033 26.1612 15.9632 26.1612 16.1231C26.1612 21 22.4493 26.6193 15.665 26.6193C13.5749 26.6193 11.6333 26.014 10 24.9632C10.297 24.9975 10.5825 25.0089 10.8909 25.0089C12.6155 25.0089 14.2031 24.4264 15.4708 23.4328C13.849 23.3985 12.4898 22.3363 12.0216 20.8744C12.25 20.9086 12.4784 20.9315 12.7183 20.9315C13.0495 20.9315 13.3807 20.8858 13.6891 20.8059C11.9987 20.4632 10.7309 18.9784 10.7309 17.1853V17.1396C11.222 17.4137 11.7932 17.585 12.3984 17.6079C11.4048 16.9454 10.7538 15.8147 10.7538 14.5355C10.7538 13.8502 10.9365 13.2221 11.2563 12.6738C13.0723 14.9124 15.802 16.3743 18.8629 16.5343C18.8058 16.2601 18.7716 15.9746 18.7716 15.6891C18.7716 13.6561 20.4162 12 22.4607 12C23.5228 12 24.4822 12.4454 25.1561 13.165C25.9898 13.0051 26.7893 12.6967 27.4975 12.2741C27.2233 13.1307 26.6409 13.8503 25.8756 14.3071C26.618 14.2272 27.3376 14.0216 28 13.7361C27.4975 14.467 26.8693 15.118 26.1498 15.6434Z" fill="white"/>
<circle cx="19" cy="19" r="18" stroke="white" stroke-width="2"/>
</svg>
